<svg width="192" height="192" viewBox="0 0 192 192" fill="none" xmlns="http://www.w3.org/2000/svg">
  <rect width="192" height="192" rx="24" fill="#c89f6d"/>
  <path d="M96 48C80.536 48 68 60.536 68 76V144C68 159.464 80.536 172 96 172C111.464 172 124 159.464 124 144V76C124 60.536 111.464 48 96 48Z" fill="white"/>
  <path d="M96 64C101.523 64 106 68.477 106 74V146C106 151.523 101.523 156 96 156C90.477 156 86 151.523 86 146V74C86 68.477 90.477 64 96 64Z" fill="#f5f5f5"/>
  <path d="M96 80C98.2091 80 100 81.7909 100 84V136C100 138.209 98.2091 140 96 140C93.7909 140 92 138.209 92 136V84C92 81.7909 93.7909 80 96 80Z" fill="#c89f6d"/>
</svg>

